<svg xmlns="http://www.w3.org/2000/svg" xmlns:xlink="http://www.w3.org/1999/xlink" width="500" zoomAndPan="magnify" viewBox="0 0 375 374.999991" height="500" preserveAspectRatio="xMidYMid meet" version="1.0"><defs><g/><clipPath id="5487e1914f"><path d="M 126.597656 78.4375 L 256 78.4375 L 256 228.4375 L 126.597656 228.4375 Z M 126.597656 78.4375 " clip-rule="nonzero"/></clipPath><clipPath id="d0fe564ec3"><path d="M 94.652344 250.675781 L 280.347656 250.675781 L 280.347656 315.707031 L 94.652344 315.707031 Z M 94.652344 250.675781 " clip-rule="nonzero"/></clipPath></defs><g clip-path="url(#5487e1914f)"><path fill="#0a4e74" d="M 191.445312 133.769531 L 191.199219 116.417969 L 178.746094 116.417969 C 178.746094 116.417969 127.203125 149.035156 127.21875 148.484375 L 126.722656 228.417969 L 213 228.207031 C 252.835938 228.101562 262.347656 185.808594 248.25 165.324219 L 229.863281 176.769531 C 238.542969 188.585938 232.980469 205.882812 212.523438 205.882812 L 149.308594 205.832031 L 149.804688 161.113281 Z M 231.441406 125.597656 C 229.863281 130.726562 224.851562 135.273438 219.058594 139.289062 C 213.125 143.390625 206.394531 146.945312 201.738281 149.972656 L 169.480469 170.613281 L 169.746094 196.472656 L 195.714844 180.359375 C 227.3125 159.433594 256.664062 150.234375 255.035156 115.761719 C 254.46875 103.539062 248.816406 92.078125 242.476562 86.363281 C 234.417969 79.078125 226.800781 78.457031 216.667969 78.457031 L 126.597656 78.457031 L 126.636719 126.78125 L 149.234375 114.207031 L 149.539062 100.550781 L 217.945312 100.550781 C 231.757812 100.550781 234.769531 114.664062 231.441406 125.597656 Z M 231.441406 125.597656 " fill-opacity="1" fill-rule="evenodd"/></g><g clip-path="url(#d0fe564ec3)"><path fill="#ffffff" d="M 94.652344 250.675781 L 280.980469 250.675781 L 280.980469 315.714844 L 94.652344 315.714844 Z M 94.652344 250.675781 " fill-opacity="1" fill-rule="nonzero"/></g><g fill="#0a4e74" fill-opacity="1"><g transform="translate(133.882478, 296.963037)"><g><path d="M 20.6875 -12.609375 C 22.070312 -12.171875 23.15625 -11.4375 23.9375 -10.40625 C 24.71875 -9.382812 25.109375 -8.117188 25.109375 -6.609375 C 25.109375 -4.484375 24.28125 -2.847656 22.625 -1.703125 C 20.976562 -0.566406 18.578125 0 15.421875 0 L 2.875 0 L 2.875 -24.25 L 14.71875 -24.25 C 17.675781 -24.25 19.945312 -23.679688 21.53125 -22.546875 C 23.113281 -21.421875 23.90625 -19.882812 23.90625 -17.9375 C 23.90625 -16.757812 23.617188 -15.707031 23.046875 -14.78125 C 22.484375 -13.863281 21.695312 -13.140625 20.6875 -12.609375 Z M 8.453125 -20.015625 L 8.453125 -14.3125 L 14.03125 -14.3125 C 15.414062 -14.3125 16.460938 -14.550781 17.171875 -15.03125 C 17.890625 -15.519531 18.25 -16.238281 18.25 -17.1875 C 18.25 -18.132812 17.890625 -18.84375 17.171875 -19.3125 C 16.460938 -19.78125 15.414062 -20.015625 14.03125 -20.015625 Z M 15 -4.21875 C 16.476562 -4.21875 17.59375 -4.460938 18.34375 -4.953125 C 19.09375 -5.441406 19.46875 -6.191406 19.46875 -7.203125 C 19.46875 -9.210938 17.976562 -10.21875 15 -10.21875 L 8.453125 -10.21875 L 8.453125 -4.21875 Z M 15 -4.21875 "/></g></g></g><g fill="#0a4e74" fill-opacity="1"><g transform="translate(165.856684, 296.963037)"><g><path d="M 13.640625 0.421875 C 10.179688 0.421875 7.488281 -0.535156 5.5625 -2.453125 C 3.632812 -4.367188 2.671875 -7.109375 2.671875 -10.671875 L 2.671875 -24.25 L 8.28125 -24.25 L 8.28125 -10.875 C 8.28125 -6.53125 10.082031 -4.359375 13.6875 -4.359375 C 15.4375 -4.359375 16.773438 -4.882812 17.703125 -5.9375 C 18.628906 -6.988281 19.09375 -8.632812 19.09375 -10.875 L 19.09375 -24.25 L 24.625 -24.25 L 24.625 -10.671875 C 24.625 -7.109375 23.660156 -4.367188 21.734375 -2.453125 C 19.804688 -0.535156 17.109375 0.421875 13.640625 0.421875 Z M 13.640625 0.421875 "/></g></g></g><g fill="#0a4e74" fill-opacity="1"><g transform="translate(198.627628, 296.963037)"><g><path d="M 11.703125 -9.53125 L 8.453125 -6.125 L 8.453125 0 L 2.875 0 L 2.875 -24.25 L 8.453125 -24.25 L 8.453125 -12.921875 L 19.1875 -24.25 L 25.421875 -24.25 L 15.375 -13.4375 L 26.015625 0 L 19.46875 0 Z M 11.703125 -9.53125 "/></g></g></g><g fill="#0a4e74" fill-opacity="1"><g transform="translate(229.735826, 296.963037)"><g><path d="M 2.875 -24.25 L 8.484375 -24.25 L 8.484375 0 L 2.875 0 Z M 2.875 -24.25 "/></g></g></g><g fill="#0a4e74" fill-opacity="1"><g transform="translate(190.226228, 317.963036)"><g/></g></g></svg>